<svg id="sheepsvg" data-name="Слой 1" xmlns="http://www.w3.org/2000/svg" width="100" height="100" viewBox="0 0 600 600"><title>element</title><path d="M203.44,233.77a4.32,4.32,0,0,0,.31-0.68c0.78-1.36,2.34-2.39,3.5-3.56a44.53,44.53,0,0,0,7.52-9.91c2.35-4.31-4.23-8.16-6.58-3.85-2.56,4.69-6.35,7.66-9.77,11.43A32,32,0,0,1,186.19,219c-3.36-3.59-8.75,1.81-5.39,5.39a39.38,39.38,0,0,0,14.73,9.86c0,2.83.84,5.85,1.22,8.39-1.57-.06-3.15-0.16-4.73-0.33-4.87-.52-4.84,7.11,0,7.63a69.69,69.69,0,0,0,14.28.06c4.84-.47,4.89-8.11,0-7.63-0.74.07-1.47,0.11-2.21,0.16a4.13,4.13,0,0,0,.07-1.48c-0.27-2-1.15-4.68-.89-6.64A3.34,3.34,0,0,1,203.44,233.77Z"/><path d="M567.06,290.62c-0.17-14.41-8.84-27.37-21.25-34,13.83-15.75,21.17-38.06,10.07-57.53-8.37-14.69-27.74-21.41-42.33-14,0-9.28-4.38-18.64-13.06-22.78a22.21,22.21,0,0,0-24.27,3.64c-6.87-17.86-26.69-29.42-45.72-28.64-21.6.89-39.93,15.69-50.33,34a29,29,0,0,0-25.33-17c-12-.35-22.45,7-28.38,16.92a30.45,30.45,0,0,0-19.63-12.48c-9.62-1.69-19.12,1.16-27,6.58a28.74,28.74,0,0,0-6-13.66c19.19,5.51,40.95-4,50.44-22.52,5.55-10.83,7.75-24.85,2.93-36.34-2.15-5.12-6.24-10.31-11.92-11.57-6.49-1.45-9.94,3.74-13.6,8.12-9.36,11.19-20.41,22.79-34.73,26.79a19.5,19.5,0,0,0-.15-17.29c-4.14-7.88-13-11.32-21.34-9.92-1.17-9.17-4-18.87-13.48-22.39s-17.59,2.33-23.73,9C196.15,59.89,174.5,52.28,155.43,59.2s-34.28,27-31.2,47.49a18.59,18.59,0,0,0-17.62,7.92c-12.59.81-24.64-13-29.37-23.13-2-4.28-2.1-11.8-7.3-13.52-5-1.63-11.09,1.42-14.68,4.64-10.35,9.28-9.4,25.27-8.33,37.89C48.06,133.77,54,144.21,66.32,150a65.12,65.12,0,0,0,30.41,5.79A38.22,38.22,0,0,0,89,174.31c-1.7,13.3,4.1,26.63,14.23,35.07C87,218.21,75.68,234.79,74.25,253.5c-1.5,19.6,9.08,39,25.46,49.51A27.2,27.2,0,0,0,101,343.28c-5.36,15.9-.52,34.87,12.45,45.76,12.59,10.56,30.89,12.4,45.53,5.48,4.23,16.86,16.81,29,32.29,35.75a479.16,479.16,0,0,1,6,52c0.55,9.18.92,18.4,0.84,27.59-0.08,9-1.42,17.3-3.15,26-1.05,5.31.58,11.53,6.94,12,5.84,0.43,11-4.26,14.08-8.73,3.61-5.25,5.23-11.71,6.32-17.89,1.52-8.62,2.59-17.35,3.41-26.06a355.09,355.09,0,0,0,.54-58.81,69.69,69.69,0,0,0,23.28-5.07c1.68,34.66,5.42,70.59-.95,104.85-0.9,4.83-3.22,14,4.66,14.29,6.45,0.22,12.1-8.1,15-13,8.49-14.42,9.29-33,10.86-49.22a489.81,489.81,0,0,0,2.1-57.78A45.52,45.52,0,0,0,305,440.25c15.73,1.58,31.35-6,40.79-18.4a48.55,48.55,0,0,0,72.43-4.05c3,33.24,5,67.24-6.12,99.25-1.86,5.36-3.52,12.46,2.2,16.2,5,3.23,11.32.88,15.3-2.75,4.73-4.31,7-10.63,8.67-16.66a241,241,0,0,0,5.33-26.09c2.85-18.44,4.16-37.06,5.35-55.67a41,41,0,0,0,15.89,1.69c0.69-.06,1.38-0.16,2.06-0.26,0.68,17.32-1.41,34.51-4.2,51.58-1.48,9.08-3.12,18.14-4.56,27.23-0.91,5.71-4,14.83,1,19.48,10.54,9.83,23.21-11.32,26.53-18.86,6.31-14.36,8.24-30.48,10.51-45.87q4.24-28.81,6-57.89a22.62,22.62,0,0,0,19.28-3.1c9.91-6.89,11.95-19.72,10.35-31,10.08-1.17,18.7-9.11,21.66-18.86,3.29-10.84-.54-22.19-7.2-30.94C558.66,318.35,567.23,305.16,567.06,290.62ZM322.17,105.83c0.29,13.59-6.47,27.58-18.22,34.77a35,35,0,0,1-36.63-.27c12.38,2.25,26.78-5,36-12.33,9.39-7.43,16-18,17.8-29.69A29.82,29.82,0,0,1,322.17,105.83Zm-25-.06c2.73-2.71,5.3-5.58,7.8-8.5,2-2.34,4.23-6.62,6.86-8.11,2.2-1.24,4.32.34,5.9,2.36,0.12,12.44-5.74,24-15.23,32.21-8.66,7.47-24.68,16.21-36.62,12.41a29.25,29.25,0,0,0-3.14-11.42C276.18,122.7,287.61,115.31,297.18,105.77Zm-220.57-.86c6.4,8.22,16.21,16,26.87,17.1-1.28,6.49.92,12.87,4.79,18.15-7.15,1.93-15.17,2.7-22.13.24C78.85,137.84,72.94,131.46,69,125c-6.48-10.74-10.29-28.81-2-39.71,0.87,0.05.16,0.68,0.67,2.4A51.71,51.71,0,0,0,76.61,104.91ZM65.17,140.62c-6.76-4.6-9.76-11.35-10.55-19.34s-1.5-17.07.74-24.71a17,17,0,0,1,5.94-9.07c-5.6,12.11-2,28.72,4.45,39.41,4.17,6.92,10.34,13.52,17.94,16.61,8.49,3.46,18.58,2.43,27.26-.17l0.52,0.55a40.43,40.43,0,0,0-5.59,3.25C92.27,149.63,76.66,148.44,65.17,140.62ZM218.24,493.36a250.76,250.76,0,0,1-3.8,28.52,41.71,41.71,0,0,1-3.38,10.62c-0.94,1.83-5,8.46-7.76,7.67-2.45-.69.94-11.11,1.22-13a118.6,118.6,0,0,0,1.14-13.69c0.29-9.79-.12-19.62-0.67-29.39a493.57,493.57,0,0,0-5.57-50.81,75.9,75.9,0,0,0,12.14,2.57c2.31,0.29,4.67.49,7.05,0.59A355.17,355.17,0,0,1,218.24,493.36Zm54.47-20.95c-1,16-2,32.85-6,48.44-1.77,6.85-4.6,13.57-9.51,18.78-0.33.35-1.13,1-1.68,1.48,0.16-1,.27-2,0.43-2.91,0.67-3.59,1.21-7.2,1.67-10.82,1.94-15.27,2-30.69,1.61-46.06-0.51-18-1.46-35.9-2.24-53.84a43.93,43.93,0,0,0,12.23-11.1,48.06,48.06,0,0,0,4.51,6.68,3.74,3.74,0,0,0-.31,1.68C273.92,440.64,273.72,456.54,272.71,472.41Zm168.78-43.27c-1.24,19.5-2.44,39.06-5.54,58.38a215.84,215.84,0,0,1-5.42,25.64c-1.07,3.7-2.38,7.56-4.93,10.54-2.79,3.26-8.89,5.55-7.33-1.13,1-4.32,2.9-8.5,4.07-12.79,1.24-4.56,2.25-9.19,3.05-13.85A198,198,0,0,0,428,470.18c0.7-17.65-.65-35.28-2.26-52.85a58,58,0,0,0,15.71,11.77v0Zm47,37.77c-2.4,16-4.13,33.86-12.41,48.05a34.78,34.78,0,0,1-7.52,9.41c-2.06,1.7-4.24,3-4.49-.61-0.17-2.35.74-5.26,1.1-7.59,1.41-9.09,3.05-18.15,4.55-27.23,3.13-19,5.68-38.08,4.69-57.34a39.08,39.08,0,0,0,19.68-15.66C492.87,433,491,450,488.5,466.91Zm50.66-146.63c-2.65,1-3.8,4.15-1.68,6.37,6.51,6.84,11.24,16.59,9,26.21-2.06,8.79-10.12,15.45-19.24,14.63-2.57-.23-4.2,2.61-3.68,4.83,2.06,8.66,2.12,19.77-4.94,26.34-5.25,4.89-15.54,5.82-19.85-.73a3.85,3.85,0,0,0-7.11,1.92c-0.76,14.88-15.14,26.19-29.52,26.47-15.58.3-29.37-10-37.48-22.63-1.41-2.21-5.31-2.74-6.58,0-5.88,12.68-17.59,22.19-31.53,24.41-14.52,2.31-29.2-3.92-38.55-15-1.62-1.92-4.81-1.18-6,.77a39,39,0,0,1-35.64,18.89c-14.33-1-27.41-11-32.61-24.31a3.94,3.94,0,0,0-3.65-2.55,3.37,3.37,0,0,0-4.29,1.66c-9.74,18-32.21,22.81-51.09,21a68.69,68.69,0,0,1-17.1-3.88,3.18,3.18,0,0,0-3.06-1.21c-14.75-6.27-27-18-29.12-34.8-0.34-2.66-3-5-5.74-3.29-12.7,8.16-30.46,7.62-41.94-2.62-11.07-9.87-14.13-26.22-8.62-39.74,0.66-1.63-.47-3.42-1.75-4.31a19.53,19.53,0,0,1,1.08-32.91c2.3-1.41,2.65-5.27,0-6.58C92,291,80.94,273.45,81.79,254.86c0.82-18,13.27-34.72,30-41.18,2.91-1.13,4-5.22.91-7-10.91-6.23-17.77-18.75-16.2-31.39a31.42,31.42,0,0,1,12.45-21c1.27-.26,2.53-0.53,3.77-0.85a3.37,3.37,0,0,0,2.67-3,32,32,0,0,1,4.55-1.64c3.31-.91,3.57-5.19.91-7-5.86-3.92-11.15-10.8-9.91-18.28a10.18,10.18,0,0,1,.62-2.17,3.16,3.16,0,0,0,2-3.25c2.75-3.34,7.17-5.46,11.26-3.72a4,4,0,0,0,2.88.11c2.63,1.05,6.33-.93,5.22-4.38-6-18.63,8.36-38.4,25.87-44.12,17.26-5.64,36.6,2.26,45.93,17.6,1.15,1.9,4.41,2.76,6,.77C214.74,79.36,221.5,71,229,73.58c8,2.69,8.77,13.27,9.32,20.22a3.87,3.87,0,0,0,5.74,3.29c5.69-2.56,13.38-.11,16.15,5.61,2.85,5.88-.1,13.06-5.52,16.18-2.3,1.32-2.29,4.13-.77,6,4.5,5.51,5.86,13.74,2.71,20.25-1.44,3-4.67,6.8-8.39,5.19-2.76-1.2-4.26-5-5.48-7.55-1.42-2.94-6.27-2.18-7,.91-2.55,11.24-7.36,24.61-21.65,21.23-12.72-3-18.28-16.36-21.87-27.57-1.08-3.37-6.54-3.88-7.35,0-3.12,14.86-22.28,18.12-29.78,4.7-1.85-3.3-7.15-1.83-7.11,1.92,0.09,6.88-1.21,15.89-7.75,19.8-4.53,2.71-12.3,1.88-14-3.78-1.44-4.68-8.8-2.68-7.35,2,2.56,8.34,11.51,12.1,19.62,10.45a310.05,310.05,0,0,0,15.71,48.14q5.21,12.37,11.46,24.27c3.56,6.76,7.48,13.66,13.59,18.45,11,8.6,28.3,10,39.22.52,5.62-4.88,8.67-11.91,11.39-18.67,3.42-8.54,6.36-17.27,9-26.09,5.92-20.08,10.07-40.62,14.16-61.13a16.29,16.29,0,0,0,8.25-5.89c0.18-.24.35-0.48,0.52-0.72a21.1,21.1,0,0,1,10.8,20.93c-0.48,3.51,3.41,6.67,6.37,3.71,6.69-6.67,16-11.25,25.68-9.86,8.28,1.2,15.7,6.83,18.33,14.85a3.85,3.85,0,0,0,7.35,0c3.23-10,12.27-18.62,23.2-19,10.25-.36,20.43,7.78,21.34,18.17a4,4,0,0,0,4.71,3.61,3,3,0,0,0,3.78-1.84c8.14-18.39,24.81-35.35,45.87-36.9,18.88-1.39,38.54,11.15,41.68,30.46,0.68,4.19,6.1,3,7.35,0,3.13-7.48,13.91-9.72,20.4-5.47,7.64,5,8.78,15.44,5.56,23.31-1.45,3.54,4,6.46,6.37,3.71,12.08-13.81,33-6.79,40,8.35,8.27,17.84-.87,37.08-13.89,49.8-2.18,2.13-.93,5.43,1.68,6.37,12,4.31,20.94,16.24,21.07,29.1A32.21,32.21,0,0,1,539.16,320.28Zm-290.08-162c-3,15.11-6.08,30.21-9.89,45.14-4.05,15.91-8.53,32.51-15.84,47.28-3.59,7.26-8.69,13-16.8,15a29.33,29.33,0,0,1-22.9-4c-7.08-4.68-11.22-12.28-15.05-19.61s-7.24-14.53-10.41-22a307.08,307.08,0,0,1-16-48.84c7.35-3.17,11.14-10.46,12.66-18.13a22.88,22.88,0,0,0,33.45-4.78c5,11.71,13,22.34,26.51,24.34a21.88,21.88,0,0,0,19-5.92c3.51-3.55,5.64-8,7.16-12.76a12.84,12.84,0,0,0,6.66,4A10.75,10.75,0,0,0,249.07,158.32Z"/><path d="M332.5,239.19c-0.49-2.4-4.16-1.39-3.68,1a5.67,5.67,0,0,1-10.34,4.34c-0.71-1-2.68-1.42-3.29,0-3.44,8-12.14,11.45-20.32,8.51-8.6-3.09-11.1-15-7.28-22.82,1.08-2.19-2.21-4.13-3.29-1.92-4.5,9.17-2.24,23.12,7.63,27.64,9.17,4.2,20.19,1.31,25.34-7.17C323.9,254.36,334.46,248.87,332.5,239.19Z"/><path d="M190.63,293.06c-0.81-2.3-4.5-1.31-3.68,1,1.69,4.76,1.63,11.42-3.1,14.58-3.74,2.49-9.2,1.67-11.52-2.28a1.92,1.92,0,0,0-3.29,0c-5.55,10.17-19.28,11.24-26.78,2.63-7.76-8.9-4.68-21.62,3.87-28.67,1.89-1.56-.82-4.25-2.7-2.7-10.59,8.72-13.08,24.88-3,35a20.18,20.18,0,0,0,30.4-2.06,12.15,12.15,0,0,0,14,1.89C191.8,308.84,193,299.85,190.63,293.06Z"/><path d="M328.69,292.5c-0.93-2.23-4.62-1.25-3.68,1,6.25,15-3.94,31.28-20.36,31.55a1.94,1.94,0,0,0-1.91,1.91c-0.2,13.14-16.66,18.73-24.52,7.94a1.93,1.93,0,0,0-3.29,0c-7.19,12.47-23.27,22.26-35.78,10.3-9.79-9.36-14.8-30.59,2-35.86,2.33-.73,1.34-4.41-1-3.68a20.33,20.33,0,0,0-13.84,16.67c-1.31,9,3,18.1,9.11,24.54s14.31,9,22.9,6.8c8-2.06,14.11-7.82,18.5-14.59,10.16,10.28,28,4.53,29.59-10.29A26.21,26.21,0,0,0,328.69,292.5Z"/><path d="M442.33,356.8c-0.11-2.44-3.92-2.46-3.81,0,0.16,3.63.41,7.8-2.29,10.65-2.45,2.58-6.41,3.41-9.82,3.39-7.83,0-15.57-4.8-16-13.2a1.93,1.93,0,0,0-3.25-1.35c-9.5,7.54-22.5,11.06-33.75,5.2-10.61-5.53-16.39-21-11.69-32.13,1-2.26-2.74-3.24-3.68-1-5.36,12.71,1.46,30.08,13.45,36.44,11.78,6.25,25.14,3.4,35.65-3.79,2.15,8.49,10.41,13.62,19.33,13.66,4.28,0,8.86-1.11,12.06-4.1C442.35,366.92,442.55,361.79,442.33,356.8Z"/><path d="M439.25,189.71c-2.31-.83-3.31,2.85-1,3.68,13.93,5,21.11,19.69,19.47,33.93a42.15,42.15,0,0,1-8.53,20.94c-5,6.4-14.24,11.56-21.69,5.66a1.93,1.93,0,0,0-3,.39c-3.69,7.45-8.84,15.64-17.71,17.17-10.92,1.88-15.26-7.19-14.88-16.67,0.1-2.45-3.71-2.45-3.81,0-0.42,10.33,4,20.54,15.68,20.74,11,0.19,18.31-8.54,23.07-17.49,16.06,10,30.94-12.06,33.94-26C464.53,214.63,456.59,195.94,439.25,189.71Z"/><path d="M510.88,261.68c-2.07-1.33-4,2-1.92,3.29a10.49,10.49,0,0,1,3.43,13.47c-2.2,4.37-6.62,6.87-11.21,8a1.91,1.91,0,0,0-1.33,2.35c4.24,10.35,1.07,22.83-8.76,28.77-8.78,5.3-25.8,4.73-29.07-7.07-0.66-2.36-4.34-1.36-3.68,1,3.68,13.26,21.39,15.6,32.27,10.6,12.23-5.63,17.67-20.11,13.56-32.57,5.72-1.95,10.94-6,12.64-12A14.22,14.22,0,0,0,510.88,261.68Z"/><path d="M511.58,214.36c-2.27-.94-3.25,2.75-1,3.68,3.2,1.32,6.51,3.6,7.33,7.18,1,4.17-2,8.05-6.42,6.92-2.38-.61-3.39,3.07-1,3.68a8.92,8.92,0,0,0,11.41-8.19C522.29,221.06,517.14,216.66,511.58,214.36Z"/><path d="M381.49,203.45c-0.47,3.06-2,6.39-5.08,7.56s-7.74-.55-7.25-4.57c0.29-2.43-3.52-2.41-3.81,0-0.67,5.59,4.84,9.25,10,8.7,5.48-.59,9.06-5.54,9.85-10.68C385.54,202.07,381.87,201,381.49,203.45Z"/><path d="M496.59,361.38c-0.55,3.19-1.67,6.61-4.81,8.11-2.89,1.38-6.31-.3-9.37-0.34-2.45,0-2.46,3.78,0,3.81,4.46,0.06,8.12,2,12.23-.71,3.37-2.23,5-6,5.62-9.86C500.68,360,497,359,496.59,361.38Z"/><path d="M317.88,379.43c-0.84,2.62-2.12,5.89-5,6.77s-5.34-1.59-5.37-4.31c0-2.45-3.84-2.46-3.81,0a8.33,8.33,0,0,0,8.12,8.31c5.41,0,8.34-5.27,9.78-9.76C322.31,378.1,318.63,377.1,317.88,379.43Z"/><path d="M221.16,372.68c-0.23,3.53-3.4,6.14-6.71,6.85-4.73,1-8.4-2.59-6.7-7.35,0.82-2.32-2.86-3.31-3.68-1a9.13,9.13,0,0,0,8.72,12.42c6.09-.1,11.77-4.73,12.18-10.9C225.13,370.23,221.32,370.24,221.16,372.68Z"/></svg>